<?xml version="1.0"?><svg xmlns="http://www.w3.org/2000/svg" xmlns:xlink="http://www.w3.org/1999/xlink" version="1.1" viewBox="0 0 512 512" style="enable-background:new 0 0 512 512;" xml:space="preserve"><g id="_x35_0_Atom"><linearGradient id="SVGID_1_" gradientUnits="userSpaceOnUse" x1="86.4283" y1="425.5784" x2="425.5551" y2="86.4516"><stop offset="0" style="stop-color:#696EFF"/><stop offset="1" style="stop-color:#F8ACFF"/></linearGradient><path style="fill:url(#SVGID_1_);" d="M406.983,256.059c53.121-48.593,79.029-95.695,62.82-123.726   c-8.754-15.131-28.508-22.33-55.571-22.377c-3.341-13.199-15.282-23.007-29.504-23.007c-16.781,0-30.434,13.666-30.434,30.466   c0,0.356,0.041,0.701,0.054,1.054c-7.383,1.875-14.986,4.048-22.789,6.521C316.076,54.863,288.312,8.994,255.981,8.994   c-32.343,0-60.115,45.901-75.594,116.07c-14.588-4.622-28.687-8.305-42.034-10.887c-49.703-9.617-83.868-3.166-96.197,18.156   c-9.705,16.78-4.247,40.412,13.041,67.09c-4.973,5.425-8.037,12.63-8.037,20.555c0,16.781,13.653,30.434,30.437,30.434   c6.023,0,11.626-1.777,16.358-4.801c3.513,3.453,7.163,6.918,10.96,10.392c-53.075,48.572-78.957,95.643-62.756,123.661   c8.785,15.189,28.587,22.457,55.805,22.457c22.924,0,51.147-5.215,82.438-15.134c15.482,70.141,43.247,116.02,75.58,116.02   c16.343,0,31.505-11.773,44.518-32.431c2.545,0.693,5.208,1.095,7.97,1.095c16.8,0,30.466-13.653,30.466-30.437   c0-11.021-5.903-20.664-14.694-26.014c2.663-8.89,5.103-18.316,7.296-28.238c40.593,12.87,116.946,29.527,138.26-7.317   c12.332-21.322,0.883-54.149-32.238-92.438C428.62,276.891,418.334,266.452,406.983,256.059z M384.728,96.636   c11.459,0,20.779,9.321,20.779,20.779c0,11.44-9.321,20.748-20.779,20.748c-11.44,0-20.748-9.308-20.748-20.748   C363.98,105.957,373.288,96.636,384.728,96.636z M356.302,128.194c4.365,11.469,15.444,19.655,28.426,19.655   c16.111,0,29.305-12.565,30.363-28.396c22.888,0.02,39.378,5.717,46.325,17.729c13.682,23.657-12.334,67.128-61.857,112.224   c-16.895-14.82-35.948-29.471-56.632-43.51c-1.812-25.447-5.001-49.338-9.325-71.139   C341.382,132.272,348.957,130.088,356.302,128.194z M343.688,218.164c17.62,12.258,33.929,24.935,48.592,37.734   c-14.533,12.698-30.838,25.451-48.608,37.865C345.014,268.496,345.012,243.161,343.688,218.164z M332.576,199.005   c-20.465-13.347-42.205-26.025-65.502-37.878c19.617-9.199,38.801-16.975,57.048-23.228   C327.843,156.857,330.724,177.381,332.576,199.005z M255.981,18.68c27.287,0,51.858,44.147,66.111,109.426   c-20.998,7.154-43.241,16.357-66.132,27.498c-22.536-10.949-44.789-20.172-66.104-27.429   C204.106,62.858,228.685,18.68,255.981,18.68z M187.875,137.73c18.455,6.334,37.63,14.163,57.097,23.346   c-22.011,11.212-43.962,23.817-65.583,37.896C181.247,177.296,184.138,156.724,187.875,137.73z M77.598,240.726   c-11.443,0-20.751-9.308-20.751-20.748c0-11.459,9.308-20.779,20.751-20.779c11.459,0,20.779,9.321,20.779,20.779   C98.377,231.418,89.056,240.726,77.598,240.726z M101.361,238.976c4.184-5.212,6.703-11.813,6.703-18.997   c0-16.8-13.666-30.466-30.466-30.466c-5.391,0-10.45,1.424-14.846,3.895c-14.896-22.912-19.986-42.777-12.208-56.225   c9.958-17.216,41.281-22.132,85.971-13.496c13.276,2.568,27.328,6.258,41.882,10.903c-4.339,21.832-7.539,45.763-9.357,71.257   c-21.025,14.248-40.034,28.905-56.686,43.501C108.545,245.877,104.883,242.419,101.361,238.976z M168.272,293.746   c-17.708-12.378-33.969-25.092-48.462-37.754c14.496-12.657,30.751-25.368,48.461-37.743   C166.954,243.152,166.952,268.791,168.272,293.746z M50.547,374.814c-13.675-23.646,12.314-67.089,61.796-112.165   c16.652,14.597,35.671,29.253,56.698,43.502c1.814,25.433,5.003,49.311,9.326,71.101   C114.722,397.597,64.206,398.429,50.547,374.814z M179.39,313.015c21.819,14.209,43.032,26.398,65.523,37.857   c-19.625,9.209-38.812,16.979-57.066,23.24C184.125,355.157,181.244,334.636,179.39,313.015z M255.981,493.32   c-27.284,0-51.853-44.143-66.106-109.419c20.988-7.154,43.224-16.354,66.103-27.488c22.88,11.135,45.115,20.335,66.104,27.489   c-2.12,9.7-4.472,18.915-7.023,27.606c-2.125-0.471-4.325-0.738-6.59-0.738c-16.784,0-30.437,13.666-30.437,30.463   c0,10.603,5.457,19.946,13.702,25.397C280.928,483.614,268.754,493.32,255.981,493.32z M329.248,441.232   c0,11.443-9.321,20.751-20.779,20.751c-11.443,0-20.751-9.308-20.751-20.751c0-11.455,9.308-20.776,20.751-20.776   C319.927,420.456,329.248,429.777,329.248,441.232z M324.115,374.115c-18.256-6.262-37.445-14.033-57.072-23.243   c22.499-11.463,43.989-23.82,65.528-37.844C330.714,334.64,327.84,355.169,324.115,374.115z M255.977,345.545   c-27.109-13.355-52.817-28.259-77.517-44.829c-1.914-28.788-2.059-58.505-0.001-89.435c24.08-16.15,49.851-31.204,77.573-44.854   c26.446,13.091,52.437,28.078,77.468,44.798c2.057,30.914,1.919,60.881,0.014,89.486   C308.631,317.399,282.873,332.295,255.977,345.545z M461.41,374.814c-13.659,23.619-64.179,22.785-127.831,2.437   c4.327-21.776,7.5-45.663,9.318-71.082c21.088-14.289,40.148-28.988,56.836-43.625c11.351,10.348,21.613,20.739,30.502,31.016   C460.007,327.98,471.371,357.595,461.41,374.814z M255.956,210.456c-25.096,0-45.513,20.439-45.513,45.56   c0,25.096,20.417,45.513,45.513,45.513c25.121,0,45.56-20.417,45.56-45.513C301.516,230.895,281.077,210.456,255.956,210.456z    M255.956,291.842c-19.755,0-35.826-16.072-35.826-35.826c0-19.78,16.072-35.874,35.826-35.874   c19.78,0,35.874,16.094,35.874,35.874C291.83,275.77,275.736,291.842,255.956,291.842z"/></g><g id="Layer_1"/></svg>